<svg xmlns="http://www.w3.org/2000/svg" version="1.1" xmlns:xlink="http://www.w3.org/1999/xlink" xmlns:svgjs="http://svgjs.dev/svgjs" width="24px" height="24px"><svg xmlns="http://www.w3.org/2000/svg" height="24px" viewBox="0 -960 960 960" width="24px" fill="#1769aa"><path d="M400-40v-80H200q-33 0-56.5-23.5T120-200v-560q0-33 23.5-56.5T200-840h200v-80h80v880h-80ZM200-200h200v-80H280v-80h120v-80H280v-80h120v-80H280v-80h120v-80H200v560Zm360-560v-80h200q33 0 56.5 23.5T840-760v560q0 33-23.5 56.5T760-120H560v-80h200v-560H560Zm0 320v-80h120v80H560Zm0-160v-80h120v80H560ZM400-480Z"></path></svg><style>@media (prefers-color-scheme: light) { :root { filter: none; } }
@media (prefers-color-scheme: dark) { :root { filter: none; } }
</style></svg>